<svg width="195" height="195" viewBox="0 0 195 195" fill="none" xmlns="http://www.w3.org/2000/svg">
<g clip-path="url(#clip0_202_9)">
<path d="M189.917 164.151H156.027C154.786 164.151 153.596 163.658 152.718 162.781C151.84 161.903 151.347 160.712 151.347 159.471V34.3813C151.355 33.1444 151.851 31.9606 152.728 31.0879C153.604 30.2151 154.79 29.7239 156.027 29.7213H189.907C191.147 29.7186 192.337 30.2078 193.216 31.0814C194.095 31.9551 194.592 33.1418 194.597 34.3813V159.471C194.598 160.086 194.478 160.695 194.244 161.264C194.009 161.832 193.664 162.349 193.229 162.783C192.794 163.218 192.278 163.563 191.71 163.798C191.141 164.032 190.532 164.153 189.917 164.151V164.151Z" fill="url(#paint0_linear_202_9)"/>
<path d="M32.8471 164.621L2.57714 149.381C1.46894 148.824 0.627366 147.849 0.237345 146.672C-0.152676 145.494 -0.0592348 144.21 0.497136 143.101L56.6571 31.3813C57.2145 30.2731 58.1891 29.4315 59.3666 29.0415C60.5442 28.6515 61.8284 28.7449 62.9371 29.3013L93.2171 44.5113C94.3253 45.0687 95.1669 46.0432 95.5569 47.2208C95.947 48.3984 95.8535 49.6826 95.2971 50.7913L39.1271 162.541C38.5697 163.65 37.5952 164.491 36.4176 164.881C35.2401 165.271 33.9558 165.178 32.8471 164.621V164.621Z" fill="url(#paint1_linear_202_9)"/>
<path d="M122.257 162.101L146.257 40.2913C146.496 39.0783 146.245 37.8202 145.559 36.7916C144.873 35.763 143.809 35.0475 142.597 34.8013L109.387 28.0913C108.783 27.9703 108.161 27.9696 107.557 28.0891C106.952 28.2085 106.377 28.4459 105.865 28.7877C105.352 29.1294 104.912 29.5688 104.569 30.0808C104.226 30.5927 103.988 31.1671 103.867 31.7713L79.8671 153.591C79.6286 154.806 79.8809 156.065 80.5687 157.094C81.2565 158.123 82.3238 158.837 83.5371 159.081L116.737 165.781C117.341 165.905 117.964 165.908 118.57 165.789C119.175 165.671 119.751 165.434 120.264 165.092C120.777 164.75 121.218 164.309 121.56 163.796C121.902 163.283 122.139 162.707 122.257 162.101V162.101Z" fill="url(#paint2_linear_202_9)"/>
</g>
<defs>
<linearGradient id="paint0_linear_202_9" x1="110.247" y1="120.071" x2="201.677" y2="86.3613" gradientUnits="userSpaceOnUse">
<stop offset="0.02" stop-color="#B02DE9"/>
<stop offset="0.8" stop-color="#6D00CC"/>
</linearGradient>
<linearGradient id="paint1_linear_202_9" x1="29.9971" y1="104.691" x2="128.287" y2="62.1913" gradientUnits="userSpaceOnUse">
<stop stop-color="#FF00FF"/>
<stop offset="0.18" stop-color="#E80DF9"/>
<stop offset="0.54" stop-color="#C024ED"/>
<stop offset="0.73" stop-color="#B02DE9"/>
</linearGradient>
<linearGradient id="paint2_linear_202_9" x1="7.06711" y1="135.971" x2="208.547" y2="61.7913" gradientUnits="userSpaceOnUse">
<stop offset="0.02" stop-color="#FF00FF"/>
<stop offset="0.09" stop-color="#E80DF9"/>
<stop offset="0.23" stop-color="#C024ED"/>
<stop offset="0.3" stop-color="#B02DE9"/>
<stop offset="0.42" stop-color="#A42BE3"/>
<stop offset="0.63" stop-color="#8527D5"/>
<stop offset="0.85" stop-color="#6021C3"/>
</linearGradient>
<clipPath id="clip0_202_9">
<rect width="194.6" height="194.6" fill="white"/>
</clipPath>
</defs>
</svg>
