<svg width="272" height="272" viewBox="0 0 272 272" fill="none" xmlns="http://www.w3.org/2000/svg">
<mask id="mask0_105_9" style="mask-type:alpha" maskUnits="userSpaceOnUse" x="0" y="41" width="272" height="190">
<path d="M0 41H272V231H0V41Z" fill="white"/>
</mask>
<g mask="url(#mask0_105_9)">
<path fill-rule="evenodd" clip-rule="evenodd" d="M112.94 61.8C121.72 52.66 133.94 47 147.44 47C165.44 47 181.04 57 189.44 71.9C196.896 68.5668 204.973 66.8459 213.14 66.85C245.54 66.85 271.84 93.35 271.84 126.05C271.84 158.75 245.54 185.25 213.14 185.25C209.18 185.25 205.32 184.852 201.54 184.1C194.19 197.2 180.14 206.1 164.14 206.1C157.626 206.113 151.195 204.635 145.34 201.78C137.89 219.28 120.54 231.58 100.34 231.58C79.24 231.58 61.34 218.28 54.44 199.58C51.369 200.228 48.2387 200.554 45.1 200.552C20 200.552 -0.299999 179.952 -0.299999 154.652C-0.299999 137.652 8.84 122.852 22.4 114.852C19.5232 108.225 18.0425 101.076 18.05 93.852C18.05 64.652 41.75 41.052 70.95 41.052C88.05 41.052 103.35 49.202 112.95 61.852" fill="#00A1E0"/>
<path fill-rule="evenodd" clip-rule="evenodd" d="M39.34 139.8C39.169 140.246 39.401 140.339 39.456 140.418C39.967 140.788 40.486 141.056 41.006 141.357C43.786 142.827 46.406 143.257 49.146 143.257C54.726 143.257 58.196 140.287 58.196 135.507V135.413C58.196 130.993 54.276 129.383 50.616 128.233L50.137 128.078C47.367 127.18 44.977 126.398 44.977 124.578V124.485C44.977 122.925 46.377 121.775 48.537 121.775C50.937 121.775 53.797 122.574 55.627 123.585C55.627 123.585 56.169 123.935 56.366 123.412C56.473 123.129 57.406 120.632 57.506 120.352C57.612 120.059 57.426 119.838 57.235 119.724C55.135 118.444 52.235 117.574 49.235 117.574L48.678 117.576C43.568 117.576 39.998 120.666 39.998 125.086V125.181C39.998 129.841 43.938 131.361 47.618 132.411L48.21 132.595C50.89 133.419 53.21 134.135 53.21 136.015V136.109C53.21 137.839 51.7 139.129 49.28 139.129C48.339 139.129 45.34 139.113 42.09 137.059C41.697 136.83 41.473 136.665 41.17 136.48C41.01 136.383 40.61 136.208 40.436 136.732L39.336 139.792M121.036 139.792C120.865 140.238 121.097 140.331 121.154 140.41C121.663 140.78 122.184 141.048 122.704 141.349C125.484 142.819 128.104 143.249 130.844 143.249C136.424 143.249 139.894 140.279 139.894 135.499V135.405C139.894 130.985 135.984 129.375 132.314 128.225L131.835 128.07C129.065 127.172 126.675 126.39 126.675 124.57V124.477C126.675 122.917 128.075 121.767 130.235 121.767C132.635 121.767 135.485 122.566 137.325 123.577C137.325 123.577 137.867 123.927 138.065 123.404C138.171 123.121 139.105 120.624 139.195 120.344C139.302 120.051 139.115 119.83 138.925 119.716C136.825 118.436 133.925 117.566 130.925 117.566L130.367 117.568C125.257 117.568 121.687 120.658 121.687 125.078V125.173C121.687 129.833 125.627 131.353 129.307 132.403L129.898 132.587C132.588 133.411 134.898 134.127 134.898 136.007V136.101C134.898 137.831 133.388 139.121 130.968 139.121C130.025 139.121 127.018 139.105 123.778 137.051C123.385 136.822 123.155 136.664 122.857 136.472C122.756 136.408 122.285 136.224 122.124 136.724L121.024 139.784M176.824 130.424C176.824 133.124 176.32 135.254 175.334 136.764C174.35 138.254 172.864 138.984 170.794 138.984C168.724 138.984 167.244 138.26 166.274 136.774C165.297 135.274 164.804 133.134 164.804 130.434C164.804 127.734 165.3 125.614 166.274 124.124C167.242 122.644 168.714 121.934 170.794 121.934C172.874 121.934 174.354 122.651 175.334 124.124C176.326 125.614 176.824 127.734 176.824 130.434M181.484 125.424C181.025 123.874 180.314 122.514 179.364 121.374C178.413 120.234 177.214 119.314 175.784 118.654C174.364 117.989 172.684 117.654 170.784 117.654C168.884 117.654 167.214 117.991 165.784 118.654C164.364 119.318 163.154 120.234 162.204 121.374C161.256 122.514 160.544 123.874 160.084 125.424C159.629 126.964 159.398 128.644 159.398 130.434C159.398 132.224 159.629 133.904 160.084 135.444C160.541 136.994 161.254 138.354 162.204 139.494C163.155 140.634 164.364 141.544 165.784 142.194C167.214 142.842 168.894 143.172 170.784 143.172C172.674 143.172 174.354 142.842 175.774 142.194C177.194 141.546 178.404 140.634 179.354 139.494C180.303 138.354 181.014 136.994 181.474 135.444C181.928 133.904 182.159 132.224 182.159 130.434C182.159 128.654 181.928 126.964 181.474 125.424M219.774 138.224C219.621 137.771 219.179 137.942 219.179 137.942C218.502 138.201 217.779 138.441 217.009 138.561C216.233 138.683 215.369 138.744 214.459 138.744C212.209 138.744 210.409 138.073 209.129 136.744C207.839 135.414 207.119 133.274 207.129 130.374C207.136 127.734 207.774 125.754 208.919 124.234C210.049 122.734 211.789 121.954 214.089 121.954C216.009 121.954 217.479 122.177 219.019 122.659C219.019 122.659 219.384 122.818 219.559 122.337C219.968 121.207 220.27 120.397 220.709 119.157C220.833 118.802 220.529 118.652 220.418 118.609C219.814 118.373 218.388 117.986 217.308 117.823C216.298 117.669 215.128 117.589 213.808 117.589C211.848 117.589 210.108 117.924 208.618 118.588C207.128 119.251 205.868 120.168 204.868 121.308C203.868 122.448 203.108 123.808 202.598 125.358C202.093 126.898 201.838 128.588 201.838 130.378C201.838 134.238 202.878 137.368 204.938 139.658C206.998 141.958 210.098 143.118 214.138 143.118C216.528 143.118 218.978 142.635 220.738 141.938C220.738 141.938 221.074 141.776 220.928 141.384L219.778 138.224M227.928 127.824C228.151 126.324 228.562 125.074 229.208 124.104C230.175 122.624 231.648 121.814 233.718 121.814C235.788 121.814 237.158 122.628 238.138 124.104C238.788 125.079 239.072 126.374 239.178 127.824L227.878 127.822L227.928 127.824ZM243.628 124.524C243.231 123.034 242.248 121.524 241.608 120.834C240.588 119.744 239.598 118.974 238.608 118.554C237.179 117.946 235.641 117.634 234.088 117.637C232.118 117.637 230.328 117.97 228.878 118.647C227.428 119.329 226.208 120.257 225.248 121.417C224.289 122.577 223.568 123.947 223.108 125.517C222.648 127.067 222.416 128.767 222.416 130.547C222.416 132.367 222.657 134.057 223.131 135.587C223.61 137.127 224.381 138.477 225.421 139.597C226.461 140.727 227.791 141.607 229.391 142.227C230.981 142.842 232.911 143.161 235.121 143.154C239.681 143.139 242.081 142.124 243.061 141.574C243.236 141.476 243.401 141.307 243.195 140.82L242.165 137.93C242.007 137.499 241.571 137.655 241.571 137.655C240.441 138.077 238.841 138.835 235.091 138.825C232.641 138.821 230.831 138.098 229.691 136.965C228.531 135.805 227.951 134.115 227.861 131.715L243.661 131.727C243.661 131.727 244.077 131.723 244.12 131.317C244.137 131.149 244.661 128.077 243.649 124.527L243.628 124.524ZM101.628 127.824C101.851 126.324 102.263 125.074 102.908 124.104C103.876 122.624 105.348 121.814 107.418 121.814C109.488 121.814 110.858 122.628 111.838 124.104C112.487 125.079 112.771 126.374 112.878 127.824L101.578 127.822L101.628 127.824ZM117.328 124.524C116.932 123.034 115.948 121.524 115.308 120.834C114.288 119.744 113.298 118.974 112.308 118.554C110.879 117.946 109.341 117.634 107.788 117.637C105.818 117.637 104.028 117.97 102.578 118.647C101.128 119.329 99.908 120.257 98.948 121.417C97.991 122.577 97.268 123.947 96.808 125.517C96.349 127.067 96.118 128.767 96.118 130.547C96.118 132.367 96.357 134.057 96.834 135.587C97.312 137.127 98.084 138.477 99.114 139.597C100.154 140.727 101.484 141.607 103.084 142.227C104.674 142.842 106.594 143.161 108.814 143.154C113.374 143.139 115.774 142.124 116.754 141.574C116.928 141.476 117.094 141.307 116.887 140.82L115.857 137.93C115.698 137.499 115.262 137.655 115.262 137.655C114.132 138.077 112.532 138.835 108.782 138.825C106.342 138.821 104.522 138.098 103.382 136.965C102.222 135.805 101.642 134.115 101.552 131.715L117.352 131.727C117.352 131.727 117.768 131.723 117.811 131.317C117.828 131.149 118.352 128.077 117.339 124.527L117.328 124.524ZM67.528 138.124C66.909 137.63 66.823 137.509 66.618 137.188C66.305 136.705 66.145 136.018 66.145 135.138C66.145 133.758 66.605 132.758 67.555 132.088C67.545 132.09 68.915 130.908 72.135 130.948C73.5682 130.974 74.9981 131.096 76.415 131.313V138.483H76.417C76.417 138.483 74.417 138.914 72.157 139.05C68.947 139.243 67.527 138.126 67.537 138.129L67.528 138.124ZM73.808 127.024C73.168 126.977 72.338 126.954 71.348 126.954C69.998 126.954 68.688 127.122 67.468 127.452C66.238 127.784 65.128 128.298 64.178 128.982C63.2254 129.662 62.4419 130.551 61.888 131.582C61.329 132.622 61.044 133.842 61.044 135.222C61.044 136.622 61.287 137.832 61.767 138.822C62.2374 139.804 62.9454 140.653 63.827 141.292C64.704 141.93 65.787 142.402 67.037 142.682C68.277 142.965 69.677 143.108 71.217 143.108C72.837 143.108 74.447 142.972 76.007 142.709C77.3357 142.48 78.6593 142.222 79.977 141.937C80.503 141.816 81.087 141.657 81.087 141.657C81.477 141.558 81.447 141.141 81.447 141.141L81.438 126.741C81.438 123.581 80.594 121.231 78.928 119.781C77.268 118.331 74.838 117.601 71.688 117.601C70.508 117.601 68.598 117.761 67.458 117.99C67.458 117.99 64.018 118.658 62.598 119.77C62.598 119.77 62.286 119.962 62.456 120.397L63.576 123.397C63.715 123.786 64.094 123.653 64.094 123.653C64.094 123.653 64.213 123.606 64.353 123.523C67.383 121.873 71.223 121.923 71.223 121.923C72.923 121.923 74.243 122.268 75.123 122.943C75.984 123.604 76.423 124.603 76.423 126.703V127.37C75.073 127.174 73.823 127.061 73.823 127.061L73.808 127.024ZM200.808 118.894C200.831 118.841 200.843 118.784 200.843 118.727C200.843 118.67 200.832 118.613 200.81 118.56C200.788 118.507 200.755 118.459 200.714 118.419C200.673 118.378 200.624 118.347 200.571 118.326C200.302 118.224 198.961 117.941 197.931 117.877C195.951 117.753 194.851 118.087 193.861 118.531C192.883 118.972 191.801 119.681 191.201 120.501L191.199 118.581C191.199 118.317 191.012 118.104 190.746 118.104H186.706C186.444 118.104 186.254 118.317 186.254 118.581V142.081C186.254 142.208 186.305 142.33 186.395 142.419C186.484 142.509 186.606 142.56 186.733 142.56H190.873C191 142.56 191.121 142.509 191.211 142.419C191.301 142.33 191.351 142.208 191.351 142.081V130.281C191.351 128.701 191.525 127.131 191.872 126.141C192.214 125.162 192.679 124.381 193.252 123.821C193.799 123.28 194.468 122.879 195.202 122.651C195.891 122.453 196.605 122.353 197.322 122.353C198.147 122.353 199.052 122.565 199.052 122.565C199.356 122.599 199.525 122.413 199.628 122.139C199.899 121.418 200.668 119.259 200.818 118.829" fill="#FFFFFE"/>
<path fill-rule="evenodd" clip-rule="evenodd" d="M162.141 108.048C161.629 107.893 161.109 107.77 160.582 107.678C159.874 107.56 159.156 107.504 158.438 107.512C155.585 107.512 153.336 108.318 151.757 109.91C150.189 111.49 149.122 113.897 148.587 117.064L148.394 118.133H144.813C144.813 118.133 144.376 118.115 144.284 118.592L143.696 121.872C143.655 122.186 143.79 122.382 144.21 122.38H147.696L144.159 142.123C143.882 143.713 143.565 145.021 143.214 146.012C142.868 146.99 142.53 147.723 142.114 148.255C141.711 148.77 141.329 149.149 140.67 149.37C140.126 149.553 139.5 149.637 138.814 149.637C138.432 149.637 137.924 149.573 137.549 149.498C137.174 149.424 136.979 149.34 136.698 149.222C136.698 149.222 136.289 149.066 136.128 149.476C135.997 149.811 135.068 152.366 134.958 152.682C134.846 152.994 135.003 153.24 135.201 153.311C135.665 153.477 136.01 153.583 136.642 153.732C137.52 153.939 138.26 153.952 138.953 153.952C140.405 153.952 141.728 153.748 142.825 153.352C143.929 152.953 144.89 152.258 145.74 151.317C146.659 150.302 147.237 149.239 147.79 147.789C148.337 146.352 148.803 144.568 149.176 142.489L152.73 122.38H157.926C157.926 122.38 158.364 122.396 158.455 121.921L159.043 118.641C159.084 118.327 158.95 118.131 158.528 118.133H153.485C153.51 118.019 153.739 116.245 154.318 114.575C154.565 113.862 155.03 113.287 155.424 112.892C155.792 112.516 156.245 112.234 156.745 112.07C157.293 111.901 157.864 111.818 158.438 111.826C158.913 111.826 159.379 111.883 159.734 111.957C160.223 112.061 160.413 112.116 160.541 112.154C161.055 112.311 161.124 112.159 161.225 111.91L162.431 108.598C162.555 108.242 162.253 108.092 162.141 108.048M91.667 142.165C91.667 142.429 91.479 142.644 91.215 142.644H87.032C86.767 142.644 86.579 142.429 86.579 142.165V108.497C86.579 108.234 86.767 108.021 87.032 108.021H91.215C91.479 108.021 91.667 108.234 91.667 108.497V142.165" fill="#FFFFFE"/>
</g>
</svg>
