<svg width="44" height="44" viewBox="0 0 44 44" fill="none" xmlns="http://www.w3.org/2000/svg">
<g clip-path="url(#clip0_201_11)">
<path d="M37.3791 21.8363C37.3791 22.6385 36.9698 22.7695 35.9547 22.7695C34.8741 22.7695 34.6776 22.5894 34.563 21.7708C34.3501 19.6914 32.9421 17.9232 30.5844 17.7267C29.8312 17.6612 29.6511 17.3829 29.6511 16.4496C29.6511 15.5819 29.7821 15.1725 30.4534 15.1725C34.5466 15.1889 37.3791 18.4798 37.3791 21.8363ZM43.3388 21.8363C43.3388 15.5982 39.1146 9 29.3564 9H9.97103C9.57809 9 9.33249 9.19647 9.33249 9.55668C9.33249 9.75315 9.47985 9.93325 9.61083 10.0315C10.3149 10.5882 11.3627 11.2103 12.738 11.898C14.0806 12.5693 15.1285 13.0113 16.1763 13.437C16.6184 13.6171 16.7821 13.8136 16.7821 14.0592C16.7821 14.403 16.5365 14.6159 16.0617 14.6159H0.671284C0.212846 14.6159 0 14.9106 0 15.2053C0 15.4509 0.0818632 15.6637 0.29471 15.8766C1.53904 17.1864 3.53652 18.7582 6.43451 20.5756C8.97229 22.1637 12.1159 23.8829 14.6209 25.0781C15.0466 25.2746 15.1776 25.5038 15.1776 25.7494C15.1612 26.0277 14.9484 26.2569 14.4572 26.2569H7.4005C7.00756 26.2569 6.77834 26.4698 6.77834 26.7972C6.77834 26.9773 6.92569 27.2065 7.12217 27.3867C8.7267 28.8438 11.2972 30.432 14.7191 31.8892C19.2872 33.8375 23.9207 35 29.1272 35C39 35 43.3388 27.6159 43.3388 21.8363ZM30.4534 30.694C25.6071 30.694 21.563 26.7481 21.563 21.8363C21.563 16.9899 25.6071 13.1096 30.4534 13.1096C35.4307 13.1096 39.3111 16.9899 39.3111 21.8363C39.2947 26.7481 35.4144 30.694 30.4534 30.694Z" fill="#FF642D"/>
</g>
<defs>
<clipPath id="clip0_201_11">
<rect width="43.34" height="43.34" fill="white"/>
</clipPath>
</defs>
</svg>
